<svg xmlns="http://www.w3.org/2000/svg" width="46.355" height="46.355" viewBox="0 0 46.355 46.355">
    <g id="_1" data-name="1" transform="translate(3.104 3.104)">
        <path id="Контур_58069" data-name="Контур 58069" d="M460.355,23.177A23.178,23.178,0,1,1,437.178,0,23.178,23.178,0,0,1,460.355,23.177Z" transform="translate(-417.104 -3.104)" fill="#fafafc"/>
        <g id="Сгруппировать_69879" data-name="Сгруппировать 69879" transform="translate(-0.002 -0.001)">
            <path id="Контур_57699" data-name="Контур 57699" d="M40.151,20.076A20.076,20.076,0,1,1,20.076,0,20.076,20.076,0,0,1,40.151,20.076Z" fill="#ffcc4d"/>
            <path id="Контур_57700" data-name="Контур 57700" d="M11.788,18.807c1.54,0,2.788-1.748,2.788-3.9S13.328,11,11.788,11,9,12.748,9,14.9,10.248,18.807,11.788,18.807Z" transform="translate(1.038 1.268)" fill="#664500"/>
            <path id="Контур_57701" data-name="Контур 57701" d="M24.788,18.807c1.54,0,2.788-1.748,2.788-3.9S26.328,11,24.788,11,22,12.748,22,14.9,23.248,18.807,24.788,18.807Z" transform="translate(2.537 1.268)" fill="#664500"/>
            <path id="Контур_57702" data-name="Контур 57702" d="M8.684,28.548a.559.559,0,0,0,.708.032,18.145,18.145,0,0,1,9.7-3.234,18.2,18.2,0,0,1,9.7,3.234.558.558,0,0,0,.813-.733A12.8,12.8,0,0,0,19.1,22,12.8,12.8,0,0,0,8.579,27.848.556.556,0,0,0,8.684,28.548Z" transform="translate(0.98 2.537)" fill="#664500"/>
        </g>
    </g>
</svg>
