<svg xmlns="http://www.w3.org/2000/svg" width="46.355" height="46.355" viewBox="0 0 46.355 46.355">
    <g id="_10" data-name="10" transform="translate(3.104 3.104)">
        <path id="Контур_58069" data-name="Контур 58069" d="M460.355,23.177A23.178,23.178,0,1,1,437.178,0,23.178,23.178,0,0,1,460.355,23.177Z" transform="translate(-417.104 -3.104)" fill="#fafafc"/>
        <g id="Сгруппировать_69872" data-name="Сгруппировать 69872" transform="translate(-0.001 -0.001)">
            <path id="Контур_57739" data-name="Контур 57739" d="M500.151,20.076A20.076,20.076,0,1,1,480.076,0,20.076,20.076,0,0,1,500.151,20.076Z" transform="translate(-460)" fill="#ffcc4d"/>
            <path id="Контур_57740" data-name="Контур 57740" d="M479.039,21.947a38.664,38.664,0,0,1-8.219-.913c-.621-.118-1.827,0-1.827,1.827,0,3.653,4.2,8.219,10.046,8.219s10.046-4.566,10.046-8.219c0-1.827-1.207-1.946-1.827-1.827A38.656,38.656,0,0,1,479.039,21.947Z" transform="translate(-458.963 2.422)" fill="#664500"/>
            <path id="Контур_57741" data-name="Контур 57741" d="M478.521,3.64a5.2,5.2,0,0,0-9.908.283,5.2,5.2,0,0,0-7.89,6,5.268,5.268,0,0,0,.526,1.068c2.176,4,8.463,6.8,12.27,6.838,2.941-2.417,6.074-8.549,5.262-13.024a5.252,5.252,0,0,0-.26-1.162Zm3.011,0a5.205,5.205,0,0,1,9.91.283,5.2,5.2,0,0,1,7.891,6,5.259,5.259,0,0,1-.527,1.068c-2.176,4-8.463,6.8-12.271,6.838-2.941-2.417-6.073-8.549-5.261-13.024a5.191,5.191,0,0,1,.259-1.162Z" transform="translate(-459.951 0.019)" fill="#dd2e44"/>
        </g>
    </g>
</svg>
