<svg xmlns="http://www.w3.org/2000/svg" width="46.355" height="46.355" viewBox="0 0 46.355 46.355">
    <g id="_2" data-name="2" transform="translate(3.104 3.104)">
        <path id="Контур_58069" data-name="Контур 58069" d="M460.355,23.177A23.178,23.178,0,1,1,437.178,0,23.178,23.178,0,0,1,460.355,23.177Z" transform="translate(-417.104 -3.104)" fill="#fafafc"/>
        <g id="Сгруппировать_69878" data-name="Сгруппировать 69878" transform="translate(-0.001 -0.001)">
            <path id="Контур_57707" data-name="Контур 57707" d="M132.151,20.076A20.076,20.076,0,1,1,112.076,0,20.076,20.076,0,0,1,132.151,20.076Z" transform="translate(-92)" fill="#ffcc4d"/>
            <path id="Контур_57708" data-name="Контур 57708" d="M103.788,20.807c1.54,0,2.788-1.748,2.788-3.9s-1.248-3.9-2.788-3.9S101,14.748,101,16.9,102.248,20.807,103.788,20.807Z" transform="translate(-90.963 1.499)" fill="#664500"/>
            <path id="Контур_57709" data-name="Контур 57709" d="M116.788,20.807c1.54,0,2.788-1.748,2.788-3.9s-1.248-3.9-2.788-3.9S114,14.748,114,16.9,115.248,20.807,116.788,20.807Z" transform="translate(-89.463 1.499)" fill="#664500"/>
            <path id="Контур_57710" data-name="Контур 57710" d="M104,28.49c2.231-5.577,14.5-5.577,14.5-3.346C118.5,26.259,109.577,24.029,104,28.49Z" transform="translate(-90.617 2.739)" fill="#664500"/>
        </g>
    </g>
</svg>
