<svg xmlns="http://www.w3.org/2000/svg" width="46.355" height="46.355" viewBox="0 0 46.355 46.355">
    <g id="_3" data-name="3" transform="translate(3.104 3.104)">
        <path id="Контур_58069" data-name="Контур 58069" d="M460.355,23.177A23.178,23.178,0,1,1,437.178,0,23.178,23.178,0,0,1,460.355,23.177Z" transform="translate(-417.104 -3.104)" fill="#fafafc"/>
        <g id="Сгруппировать_69877" data-name="Сгруппировать 69877" transform="translate(-0.002 -0.001)">
            <path id="Контур_57711" data-name="Контур 57711" d="M158.076,40.151A20.076,20.076,0,1,0,138,20.076,20.076,20.076,0,0,0,158.076,40.151Z" transform="translate(-138)" fill="#ffcc4d"/>
            <path id="Контур_57712" data-name="Контур 57712" d="M163.134,20.268A6.134,6.134,0,1,0,157,14.134,6.134,6.134,0,0,0,163.134,20.268Z" transform="translate(-135.809 0.923)" fill="#f4f7f9"/>
            <path id="Контур_57713" data-name="Контур 57713" d="M150.134,20.268A6.134,6.134,0,1,0,144,14.134,6.134,6.134,0,0,0,150.134,20.268Z" transform="translate(-137.308 0.923)" fill="#f4f7f9"/>
            <path id="Контур_57714" data-name="Контур 57714" d="M162.851,25.2c-3.082-.744-9.9-.067-12.449,4.913a.419.419,0,0,0,.373.609.421.421,0,0,0,.269-.1c3.44-2.878,8.293-2.878,11.193-2.878,1.824,0,2.828,0,2.828-.79S164.279,25.542,162.851,25.2ZM148.788,13.572a2.783,2.783,0,0,0,.419-5.534,6.068,6.068,0,0,0-2.429.821,2.783,2.783,0,0,0,2.01,4.713Zm14.5,0a2.783,2.783,0,0,0,.419-5.534,6.063,6.063,0,0,0-2.428.821,2.782,2.782,0,0,0,2.009,4.713Z" transform="translate(-137.077 0.927)" fill="#65471b"/>
        </g>
    </g>
</svg>
