<svg xmlns="http://www.w3.org/2000/svg" width="46.355" height="46.355" viewBox="0 0 46.355 46.355">
    <g id="_4" data-name="4" transform="translate(3.104 3.104)">
        <path id="Контур_58069" data-name="Контур 58069" d="M460.355,23.177A23.178,23.178,0,1,1,437.178,0,23.178,23.178,0,0,1,460.355,23.177Z" transform="translate(-417.104 -3.104)" fill="#fafafc"/>
        <g id="Сгруппировать_69876" data-name="Сгруппировать 69876" transform="translate(-0.002 -0.001)">
            <path id="Контур_57715" data-name="Контур 57715" d="M224.151,20.076A20.076,20.076,0,1,1,204.076,0,20.076,20.076,0,0,1,224.151,20.076Z" transform="translate(-184)" fill="#ffcc4d"/>
            <path id="Контур_57716" data-name="Контур 57716" d="M195.788,20.807c1.54,0,2.788-1.748,2.788-3.9s-1.248-3.9-2.788-3.9S193,14.748,193,16.9,194.248,20.807,195.788,20.807Z" transform="translate(-182.962 1.499)" fill="#664500"/>
            <path id="Контур_58625" data-name="Контур 58625" d="M193.859,20.807c.475,0,.859-1.748.859-3.9s-.385-3.9-.859-3.9S193,14.748,193,16.9,193.385,20.807,193.859,20.807Z" transform="translate(3.172 224.849) rotate(-90)" fill="#664500"/>
            <path id="Контур_57717" data-name="Контур 57717" d="M208.788,20.807c1.54,0,2.788-1.748,2.788-3.9s-1.248-3.9-2.788-3.9S206,14.748,206,16.9,207.248,20.807,208.788,20.807Z" transform="translate(-181.463 1.499)" fill="#664500"/>
        </g>
    </g>
</svg>
