<svg xmlns="http://www.w3.org/2000/svg" width="46.355" height="46.355" viewBox="0 0 46.355 46.355">
    <g id="_5" data-name="5" transform="translate(3.104 3.104)">
        <path id="Контур_58069" data-name="Контур 58069" d="M460.355,23.177A23.178,23.178,0,1,1,437.178,0,23.178,23.178,0,0,1,460.355,23.177Z" transform="translate(-417.104 -3.104)" fill="#fafafc"/>
        <g id="Сгруппировать_69875" data-name="Сгруппировать 69875" transform="translate(-0.002 -0.001)">
            <path id="Контур_57718" data-name="Контур 57718" d="M250.076,40.151A20.076,20.076,0,1,0,230,20.076,20.076,20.076,0,0,0,250.076,40.151Z" transform="translate(-230)" fill="#ffcc4d"/>
            <path id="Контур_57719" data-name="Контур 57719" d="M240.517,23.693c.05.2,1.3,4.884,8.348,4.884s8.3-4.684,8.348-4.884a.556.556,0,0,0-.264-.618.563.563,0,0,0-.669.086c-.021.021-2.179,2.07-7.415,2.07s-7.395-2.049-7.415-2.069a.557.557,0,0,0-.934.531Z" transform="translate(-228.789 2.652)" fill="#664500"/>
            <path id="Контур_57720" data-name="Контур 57720" d="M242.288,17.807c1.54,0,2.788-1.748,2.788-3.9s-1.248-3.9-2.788-3.9-2.788,1.748-2.788,3.9S240.748,17.807,242.288,17.807Z" transform="translate(-228.904 1.153)" fill="#664500"/>
            <path id="Контур_57721" data-name="Контур 57721" d="M254.288,17.807c1.54,0,2.788-1.748,2.788-3.9s-1.248-3.9-2.788-3.9-2.788,1.748-2.788,3.9S252.748,17.807,254.288,17.807Z" transform="translate(-227.521 1.153)" fill="#664500"/>
        </g>
    </g>
</svg>
