<svg xmlns="http://www.w3.org/2000/svg" width="46.355" height="46.355" viewBox="0 0 46.355 46.355">
    <g id="_6" data-name="6" transform="translate(3.104 3.104)">
        <path id="Контур_58069" data-name="Контур 58069" d="M460.355,23.177A23.178,23.178,0,1,1,437.178,0,23.178,23.178,0,0,1,460.355,23.177Z" transform="translate(-417.104 -3.104)" fill="#fafafc"/>
        <g id="Сгруппировать_69874" data-name="Сгруппировать 69874" transform="translate(-0.002 -0.001)">
            <path id="Контур_57722" data-name="Контур 57722" d="M316.151,20.076A20.076,20.076,0,1,1,296.076,0,20.076,20.076,0,0,1,316.151,20.076Z" transform="translate(-276)" fill="#ffcc4d"/>
            <path id="Контур_57723" data-name="Контур 57723" d="M287.788,20.807c1.54,0,2.788-1.748,2.788-3.9s-1.248-3.9-2.788-3.9S285,14.748,285,16.9,286.248,20.807,287.788,20.807Z" transform="translate(-274.962 1.499)" fill="#664500"/>
            <path id="Контур_57724" data-name="Контур 57724" d="M307.162,19.1c-.067-.151-1.672-3.677-4.971-3.677s-4.9,3.527-4.971,3.677a.559.559,0,0,0,.842.675,8.98,8.98,0,0,1,8.258,0,.556.556,0,0,0,.332.11.557.557,0,0,0,.51-.784ZM282.114,13.15a1.115,1.115,0,0,1-.891-1.785,11.617,11.617,0,0,1,8.7-4.907,1.115,1.115,0,0,1,0,2.231,9.407,9.407,0,0,0-6.92,4.015A1.11,1.11,0,0,1,282.114,13.15Zm25.654,2.37a1.113,1.113,0,0,1-.893-.446c-2.891-3.856-7.764-2.93-7.812-2.922a1.115,1.115,0,0,1-.438-2.187c.258-.052,6.309-1.2,10.033,3.77a1.114,1.114,0,0,1-.223,1.561,1.09,1.09,0,0,1-.667.224Zm-6.41,10.031a.573.573,0,0,0-.666.067c-.011.009-1.13.963-5.194.963s-5.182-.952-5.182-.952a.557.557,0,0,0-.935.53c.011.049,1.276,4.884,6.116,4.884s6.105-4.835,6.117-4.884a.554.554,0,0,0-.258-.607Z" transform="translate(-275.423 0.745)" fill="#664500"/>
        </g>
    </g>
</svg>
