<svg xmlns="http://www.w3.org/2000/svg" width="46.355" height="46.355" viewBox="0 0 46.355 46.355">
    <g id="_7" data-name="7" transform="translate(3.104 3.104)">
        <path id="Контур_58069" data-name="Контур 58069" d="M460.355,23.177A23.178,23.178,0,1,1,437.178,0,23.178,23.178,0,0,1,460.355,23.177Z" transform="translate(-417.104 -3.104)" fill="#fafafc"/>
        <g id="Сгруппировать_69873" data-name="Сгруппировать 69873" transform="translate(-0.001 -0.001)">
            <path id="Контур_57725" data-name="Контур 57725" d="M342.076,40.151A20.076,20.076,0,1,0,322,20.076,20.076,20.076,0,0,0,342.076,40.151Z" transform="translate(-322)" fill="#ffcc4d"/>
            <path id="Контур_57726" data-name="Контур 57726" d="M341.268,21.12A47.2,47.2,0,0,1,331.231,20c-.757-.146-2.231,0-2.231,2.231,0,4.461,5.125,10.038,12.268,10.038s12.268-5.577,12.268-10.038c0-2.231-1.473-2.378-2.231-2.231A47.2,47.2,0,0,1,341.268,21.12Z" transform="translate(-321.193 2.302)" fill="#664500"/>
            <path id="Контур_57727" data-name="Контур 57727" d="M331,22s3.346,1.115,10.038,1.115S351.076,22,351.076,22s-2.231,4.461-10.038,4.461S331,22,331,22Z" transform="translate(-320.963 2.537)" fill="#fff"/>
            <path id="Контур_57728" data-name="Контур 57728" d="M334.288,17.807c1.54,0,2.788-1.748,2.788-3.9s-1.248-3.9-2.788-3.9-2.788,1.748-2.788,3.9S332.748,17.807,334.288,17.807Z" transform="translate(-320.905 1.153)" fill="#664500"/>
            <path id="Контур_57729" data-name="Контур 57729" d="M346.288,17.807c1.54,0,2.788-1.748,2.788-3.9s-1.248-3.9-2.788-3.9-2.788,1.748-2.788,3.9S344.748,17.807,346.288,17.807Z" transform="translate(-319.521 1.153)" fill="#664500"/>
        </g>
    </g>
</svg>
