<svg xmlns="http://www.w3.org/2000/svg" width="46.355" height="46.355" viewBox="0 0 46.355 46.355">
    <g id="_8" data-name="8" transform="translate(3.104 3.104)">
        <path id="Контур_58069" data-name="Контур 58069" d="M460.355,23.177A23.178,23.178,0,1,1,437.178,0,23.178,23.178,0,0,1,460.355,23.177Z" transform="translate(-417.104 -3.104)" fill="#fafafc"/>
        <g id="Сгруппировать_69871" data-name="Сгруппировать 69871" transform="translate(-0.002 -0.001)">
            <path id="Контур_57730" data-name="Контур 57730" d="M408.151,20.076A20.076,20.076,0,1,1,388.076,0,20.076,20.076,0,0,1,408.151,20.076Z" transform="translate(-367.999)" fill="#ffcc4d"/>
            <path id="Контур_57731" data-name="Контур 57731" d="M379.788,19.268c1.54,0,2.788-2.746,2.788-6.134S381.329,7,379.788,7,377,9.746,377,13.134,378.248,19.268,379.788,19.268Z" transform="translate(-366.962 0.807)" fill="#664500"/>
            <path id="Контур_57732" data-name="Контур 57732" d="M392.788,19.268c1.54,0,2.788-2.746,2.788-6.134S394.329,7,392.788,7,390,9.746,390,13.134,391.248,19.268,392.788,19.268Z" transform="translate(-365.463 0.807)" fill="#664500"/>
            <path id="Контур_57733" data-name="Контур 57733" d="M387.268,22.12A47.2,47.2,0,0,1,377.231,21c-.757-.146-2.231,0-2.231,2.231,0,4.461,5.125,10.038,12.268,10.038s12.268-5.577,12.268-10.038c0-2.231-1.473-2.378-2.231-2.231A47.2,47.2,0,0,1,387.268,22.12Z" transform="translate(-367.192 2.417)" fill="#664500"/>
            <path id="Контур_57734" data-name="Контур 57734" d="M377,23s3.346,1.115,10.038,1.115S397.076,23,397.076,23s-2.231,4.461-10.038,4.461S377,23,377,23Z" transform="translate(-366.962 2.652)" fill="#fff"/>
        </g>
    </g>
</svg>
