<svg xmlns="http://www.w3.org/2000/svg" width="46.355" height="46.355" viewBox="0 0 46.355 46.355">
    <g id="_9" data-name="9" transform="translate(3.104 3.104)">
        <path id="Контур_58069" data-name="Контур 58069" d="M460.355,23.177A23.178,23.178,0,1,1,437.178,0,23.178,23.178,0,0,1,460.355,23.177Z" transform="translate(-417.104 -3.104)" fill="#fafafc"/>
        <path id="Контур_57735" data-name="Контур 57735" d="M454.148,20.074A20.074,20.074,0,1,1,434.074,0,20.074,20.074,0,0,1,454.148,20.074Z" transform="translate(-414)" fill="#ffcc4d"/>
        <path id="Контур_57736" data-name="Контур 57736" d="M421.576,24.152A5.576,5.576,0,1,0,416,18.576,5.576,5.576,0,0,0,421.576,24.152Z" transform="translate(-413.769 1.498)" fill="#ff7892"/>
        <path id="Контур_57737" data-name="Контур 57737" d="M443.576,24.152A5.576,5.576,0,1,0,438,18.576,5.576,5.576,0,0,0,443.576,24.152Z" transform="translate(-411.234 1.498)" fill="#ff7892"/>
        <path id="Контур_57738" data-name="Контур 57738" d="M443.678,22.854a.559.559,0,0,0-.708-.032,16.171,16.171,0,0,1-19.4,0,.558.558,0,0,0-.813.733,12.379,12.379,0,0,0,21.031,0,.556.556,0,0,0-.1-.7Zm-21.564-7.393a1.116,1.116,0,0,1-1-1.615,6.656,6.656,0,0,1,10.916,0,1.115,1.115,0,0,1-1.988,1.01,4.518,4.518,0,0,0-6.933-.013,1.113,1.113,0,0,1-1,.617Zm22.307,0a1.116,1.116,0,0,1-1-.617,4.517,4.517,0,0,0-6.933.014,1.125,1.125,0,0,1-1.5.468,1.109,1.109,0,0,1-.488-1.481,6.658,6.658,0,0,1,10.918,0,1.114,1.114,0,0,1-1,1.614Z" transform="translate(-413.193 1.267)" fill="#664500"/>
    </g>
</svg>
